<svg width="41" height="40" viewBox="0 0 41 40" fill="none" xmlns="http://www.w3.org/2000/svg">
<g clip-path="url(#clip0_2_391)">
<g filter="url(#filter0_b_2_391)">
<mask id="path-1-inside-1_2_391" fill="white">
<path fill-rule="evenodd" clip-rule="evenodd" d="M19.3462 10.6882H21.7191C21.7191 10.3159 21.7218 9.95174 21.7245 9.59257C21.7298 8.88874 21.7349 8.20399 21.7191 7.514C21.6951 6.89113 21.1918 6.43596 20.5926 6.40002C19.9934 6.37607 19.3942 6.79531 19.3582 7.39422C19.3247 8.15574 19.3322 8.91726 19.3397 9.68695C19.343 10.019 19.3462 10.3525 19.3462 10.6882ZM3.22819 22.3833C2.85559 23.6246 2.48392 24.8627 2.53267 26.1881C2.53267 26.2679 2.53134 26.3478 2.53001 26.4276C2.52734 26.5873 2.52468 26.747 2.53267 26.9067C2.79632 31.0752 6.76303 33.7703 10.7297 32.4527C12.4914 31.8657 13.7497 30.6799 14.4807 28.979C15.1518 27.4338 16.2304 26.2959 17.8123 25.7329C19.4182 25.1579 21.0839 25.1699 22.7138 25.5652C24.4994 26.0084 25.6498 27.2182 26.3929 28.8832C27.6272 31.6741 30.7191 33.2672 33.5593 32.6084C36.9747 31.8178 39.2277 28.2363 38.3289 24.8465C37.55 21.8759 36.7111 18.9292 35.7763 16.0066C34.3143 11.4309 28.4301 9.59821 24.8469 12.8802C24.7031 13.012 24.4514 13.0959 24.2597 13.0959C21.7431 13.1078 19.2264 13.1078 16.7098 13.0959C16.4941 13.0959 16.2304 13.012 16.0746 12.8683C12.3955 9.53832 6.37954 11.4908 5.01336 16.2461C4.88453 16.6863 4.75495 17.1265 4.62537 17.5667C4.23664 18.8873 3.84791 20.2079 3.47941 21.5285C3.39898 21.8143 3.31356 22.0989 3.22819 22.3833ZM27.4325 20.2172C27.5662 20.0877 27.7124 19.9461 27.8789 19.7797C27.7512 19.6663 27.6292 19.5641 27.5135 19.4672C27.3359 19.3184 27.1731 19.1821 27.028 19.0371C26.4168 18.4262 26.3809 17.7075 26.8962 17.1924C27.4115 16.6773 28.1305 16.7372 28.7417 17.3481C28.9409 17.5472 29.1325 17.7537 29.3642 18.0034C29.4253 18.0692 29.4891 18.1381 29.5566 18.2106C29.6525 18.1041 29.7431 18.0008 29.831 17.9006C30.0396 17.6627 30.2326 17.4426 30.4435 17.2403C30.9827 16.7253 31.6778 16.7133 32.1572 17.1804C32.6605 17.6715 32.6485 18.3902 32.1212 18.9412C31.9201 19.151 31.6998 19.3417 31.4371 19.5691C31.3398 19.6533 31.2367 19.7425 31.1265 19.8396C31.2766 19.9799 31.4188 20.1045 31.554 20.223C31.7535 20.398 31.9378 20.5594 32.1092 20.738C32.6485 21.3009 32.6485 22.0196 32.1572 22.4988C31.6538 22.9899 30.9588 22.9659 30.4075 22.4149C30.2287 22.2284 30.065 22.0268 29.8838 21.8035C29.7856 21.6826 29.6823 21.5554 29.5686 21.4207C29.4277 21.5704 29.3045 21.7055 29.1909 21.8302C28.9953 22.0449 28.8278 22.2287 28.6459 22.4029C28.0706 22.9539 27.3875 22.9899 26.8842 22.4988C26.3689 21.9957 26.3929 21.277 26.9561 20.69C27.1053 20.5342 27.2583 20.3859 27.4325 20.2172ZM10.4966 18.6509C10.636 18.6523 10.7804 18.6538 10.9335 18.6538C10.9335 18.531 10.9326 18.4165 10.9319 18.3078C10.9297 18.0032 10.9278 17.7448 10.9455 17.4799C10.9694 16.7612 11.4727 16.2461 12.1439 16.2581C12.803 16.2581 13.3063 16.7732 13.3303 17.5038C13.3381 17.7386 13.3357 17.9734 13.3331 18.2282C13.3317 18.3634 13.3303 18.5043 13.3303 18.6538C13.4689 18.6538 13.6033 18.6524 13.735 18.651C13.9905 18.6484 14.2356 18.6458 14.4807 18.6538C15.1998 18.6777 15.7151 19.1808 15.7151 19.8396C15.7151 20.5104 15.1998 21.0135 14.4807 21.0374C14.2477 21.0452 14.0197 21.0429 13.7641 21.0403C13.6253 21.0389 13.4785 21.0374 13.3183 21.0374C13.3183 21.1729 13.3197 21.3028 13.3211 21.429C13.3237 21.6709 13.3262 21.8992 13.3183 22.1274C13.3063 22.906 12.8389 23.4211 12.1439 23.4331C11.4368 23.445 10.9455 22.918 10.9335 22.1035V21.0374C10.7799 21.0374 10.635 21.0389 10.4957 21.0402C10.2328 21.0428 9.9899 21.0452 9.74705 21.0374C9.05198 21.0015 8.54865 20.5104 8.53666 19.8755C8.5127 19.2167 9.01603 18.6897 9.73507 18.6538C9.9862 18.6459 10.2322 18.6483 10.4966 18.6509Z"/>
</mask>
<path fill-rule="evenodd" clip-rule="evenodd" d="M19.3462 10.6882H21.7191C21.7191 10.3159 21.7218 9.95174 21.7245 9.59257C21.7298 8.88874 21.7349 8.20399 21.7191 7.514C21.6951 6.89113 21.1918 6.43596 20.5926 6.40002C19.9934 6.37607 19.3942 6.79531 19.3582 7.39422C19.3247 8.15574 19.3322 8.91726 19.3397 9.68695C19.343 10.019 19.3462 10.3525 19.3462 10.6882ZM3.22819 22.3833C2.85559 23.6246 2.48392 24.8627 2.53267 26.1881C2.53267 26.2679 2.53134 26.3478 2.53001 26.4276C2.52734 26.5873 2.52468 26.747 2.53267 26.9067C2.79632 31.0752 6.76303 33.7703 10.7297 32.4527C12.4914 31.8657 13.7497 30.6799 14.4807 28.979C15.1518 27.4338 16.2304 26.2959 17.8123 25.7329C19.4182 25.1579 21.0839 25.1699 22.7138 25.5652C24.4994 26.0084 25.6498 27.2182 26.3929 28.8832C27.6272 31.6741 30.7191 33.2672 33.5593 32.6084C36.9747 31.8178 39.2277 28.2363 38.3289 24.8465C37.55 21.8759 36.7111 18.9292 35.7763 16.0066C34.3143 11.4309 28.4301 9.59821 24.8469 12.8802C24.7031 13.012 24.4514 13.0959 24.2597 13.0959C21.7431 13.1078 19.2264 13.1078 16.7098 13.0959C16.4941 13.0959 16.2304 13.012 16.0746 12.8683C12.3955 9.53832 6.37954 11.4908 5.01336 16.2461C4.88453 16.6863 4.75495 17.1265 4.62537 17.5667C4.23664 18.8873 3.84791 20.2079 3.47941 21.5285C3.39898 21.8143 3.31356 22.0989 3.22819 22.3833ZM27.4325 20.2172C27.5662 20.0877 27.7124 19.9461 27.8789 19.7797C27.7512 19.6663 27.6292 19.5641 27.5135 19.4672C27.3359 19.3184 27.1731 19.1821 27.028 19.0371C26.4168 18.4262 26.3809 17.7075 26.8962 17.1924C27.4115 16.6773 28.1305 16.7372 28.7417 17.3481C28.9409 17.5472 29.1325 17.7537 29.3642 18.0034C29.4253 18.0692 29.4891 18.1381 29.5566 18.2106C29.6525 18.1041 29.7431 18.0008 29.831 17.9006C30.0396 17.6627 30.2326 17.4426 30.4435 17.2403C30.9827 16.7253 31.6778 16.7133 32.1572 17.1804C32.6605 17.6715 32.6485 18.3902 32.1212 18.9412C31.9201 19.151 31.6998 19.3417 31.4371 19.5691C31.3398 19.6533 31.2367 19.7425 31.1265 19.8396C31.2766 19.9799 31.4188 20.1045 31.554 20.223C31.7535 20.398 31.9378 20.5594 32.1092 20.738C32.6485 21.3009 32.6485 22.0196 32.1572 22.4988C31.6538 22.9899 30.9588 22.9659 30.4075 22.4149C30.2287 22.2284 30.065 22.0268 29.8838 21.8035C29.7856 21.6826 29.6823 21.5554 29.5686 21.4207C29.4277 21.5704 29.3045 21.7055 29.1909 21.8302C28.9953 22.0449 28.8278 22.2287 28.6459 22.4029C28.0706 22.9539 27.3875 22.9899 26.8842 22.4988C26.3689 21.9957 26.3929 21.277 26.9561 20.69C27.1053 20.5342 27.2583 20.3859 27.4325 20.2172ZM10.4966 18.6509C10.636 18.6523 10.7804 18.6538 10.9335 18.6538C10.9335 18.531 10.9326 18.4165 10.9319 18.3078C10.9297 18.0032 10.9278 17.7448 10.9455 17.4799C10.9694 16.7612 11.4727 16.2461 12.1439 16.2581C12.803 16.2581 13.3063 16.7732 13.3303 17.5038C13.3381 17.7386 13.3357 17.9734 13.3331 18.2282C13.3317 18.3634 13.3303 18.5043 13.3303 18.6538C13.4689 18.6538 13.6033 18.6524 13.735 18.651C13.9905 18.6484 14.2356 18.6458 14.4807 18.6538C15.1998 18.6777 15.7151 19.1808 15.7151 19.8396C15.7151 20.5104 15.1998 21.0135 14.4807 21.0374C14.2477 21.0452 14.0197 21.0429 13.7641 21.0403C13.6253 21.0389 13.4785 21.0374 13.3183 21.0374C13.3183 21.1729 13.3197 21.3028 13.3211 21.429C13.3237 21.6709 13.3262 21.8992 13.3183 22.1274C13.3063 22.906 12.8389 23.4211 12.1439 23.4331C11.4368 23.445 10.9455 22.918 10.9335 22.1035V21.0374C10.7799 21.0374 10.635 21.0389 10.4957 21.0402C10.2328 21.0428 9.9899 21.0452 9.74705 21.0374C9.05198 21.0015 8.54865 20.5104 8.53666 19.8755C8.5127 19.2167 9.01603 18.6897 9.73507 18.6538C9.9862 18.6459 10.2322 18.6483 10.4966 18.6509Z" fill="#E60000"/>
<path d="M21.7191 10.6882V11.6882H22.7191V10.6882H21.7191ZM19.3462 10.6882H18.3462V11.6882H19.3462V10.6882ZM21.7245 9.59257L20.7245 9.58505V9.58505L21.7245 9.59257ZM21.7191 7.514L22.7188 7.49101L22.7186 7.48327L22.7183 7.47555L21.7191 7.514ZM20.5926 6.40002L20.6524 5.40182L20.6425 5.40122L20.6325 5.40082L20.5926 6.40002ZM19.3582 7.39422L18.36 7.3343L18.3595 7.34228L18.3592 7.35028L19.3582 7.39422ZM19.3397 9.68695L20.3397 9.67716V9.67716L19.3397 9.68695ZM2.53267 26.1881H3.53267V26.1697L3.53199 26.1513L2.53267 26.1881ZM3.22819 22.3833L4.18596 22.6708L3.22819 22.3833ZM2.53001 26.4276L1.53015 26.4109L2.53001 26.4276ZM2.53267 26.9067L1.53383 26.9567L1.53466 26.9699L2.53267 26.9067ZM10.7297 32.4527L11.045 33.4017L11.0458 33.4014L10.7297 32.4527ZM14.4807 28.979L13.5635 28.5806L13.562 28.5841L14.4807 28.979ZM17.8123 25.7329L18.1476 26.675L18.1494 26.6744L17.8123 25.7329ZM22.7138 25.5652L22.9547 24.5946L22.9495 24.5934L22.7138 25.5652ZM26.3929 28.8832L27.3074 28.4787L27.3061 28.4756L26.3929 28.8832ZM33.5593 32.6084L33.3338 31.6341L33.3333 31.6342L33.5593 32.6084ZM38.3289 24.8465L37.3616 25.1001L37.3623 25.1028L38.3289 24.8465ZM35.7763 16.0066L34.8238 16.3109L34.8239 16.3112L35.7763 16.0066ZM24.8469 12.8802L24.1715 12.1428L24.1714 12.1429L24.8469 12.8802ZM24.2597 13.0959V12.0958L24.2549 12.0959L24.2597 13.0959ZM16.7098 13.0959L16.7145 12.0959H16.7098V13.0959ZM16.0746 12.8683L16.7527 12.1333L16.7457 12.1269L16.0746 12.8683ZM5.01336 16.2461L5.97312 16.527L5.97448 16.5223L5.01336 16.2461ZM4.62537 17.5667L3.66607 17.2844L3.66607 17.2844L4.62537 17.5667ZM3.47941 21.5285L4.44203 21.7994L4.44261 21.7973L3.47941 21.5285ZM27.8789 19.7797L28.5858 20.487L29.3363 19.7369L28.5431 19.0321L27.8789 19.7797ZM27.4325 20.2172L26.7368 19.4989L26.7368 19.4989L27.4325 20.2172ZM27.5135 19.4672L28.1556 18.7006L28.1556 18.7006L27.5135 19.4672ZM27.028 19.0371L27.7349 18.3298L27.7349 18.3298L27.028 19.0371ZM26.8962 17.1924L26.1893 16.4851V16.4851L26.8962 17.1924ZM28.7417 17.3481L29.4487 16.6408L28.7417 17.3481ZM29.3642 18.0034L30.0972 17.3232L30.0972 17.3232L29.3642 18.0034ZM29.5566 18.2106L28.8249 18.8922L29.5691 19.6911L30.2998 18.8797L29.5566 18.2106ZM29.831 17.9006L29.0791 17.2413L29.0791 17.2413L29.831 17.9006ZM30.4435 17.2403L29.7528 16.5172L29.7511 16.5188L30.4435 17.2403ZM32.1572 17.1804L32.8555 16.4647L32.8551 16.4643L32.1572 17.1804ZM32.1212 18.9412L32.843 19.6333L32.8437 19.6326L32.1212 18.9412ZM31.4371 19.5691L30.7826 18.8129L30.7826 18.8129L31.4371 19.5691ZM31.1265 19.8396L30.4651 19.0896L29.6392 19.818L30.4436 20.57L31.1265 19.8396ZM31.554 20.223L32.2131 19.471V19.471L31.554 20.223ZM32.1092 20.738L32.8314 20.0462L32.8305 20.0453L32.1092 20.738ZM32.1572 22.4988L31.459 21.7828L31.4588 21.783L32.1572 22.4988ZM30.4075 22.4149L29.6857 23.107L29.693 23.1147L29.7006 23.1222L30.4075 22.4149ZM29.8838 21.8035L29.1074 22.4338H29.1074L29.8838 21.8035ZM29.5686 21.4207L30.3328 20.7757L29.6094 19.9187L28.8406 20.7352L29.5686 21.4207ZM29.1909 21.8302L29.93 22.5038L29.93 22.5038L29.1909 21.8302ZM28.6459 22.4029L27.9541 21.6808H27.9541L28.6459 22.4029ZM26.8842 22.4988L26.1856 23.2143L26.1858 23.2145L26.8842 22.4988ZM26.9561 20.69L27.6776 21.3824L27.6786 21.3814L26.9561 20.69ZM10.9335 18.6538V19.6538H11.9335V18.6538H10.9335ZM10.4966 18.6509L10.4867 19.6509H10.4867L10.4966 18.6509ZM10.9319 18.3078L11.9318 18.3006V18.3006L10.9319 18.3078ZM10.9455 17.4799L11.9432 17.5464L11.9443 17.5298L11.9449 17.5132L10.9455 17.4799ZM12.1439 16.2581L12.126 17.2579L12.1349 17.2581H12.1439V16.2581ZM13.3303 17.5038L12.3308 17.5366L12.3308 17.5372L13.3303 17.5038ZM13.3331 18.2282L14.333 18.2384V18.2384L13.3331 18.2282ZM13.3303 18.6538H12.3303V19.6538H13.3303V18.6538ZM13.735 18.651L13.7453 19.651H13.7453L13.735 18.651ZM14.4807 18.6538L14.514 17.6543L14.513 17.6543L14.4807 18.6538ZM14.4807 21.0374L14.4474 20.038L14.4474 20.038L14.4807 21.0374ZM13.7641 21.0403L13.7742 20.0403H13.7742L13.7641 21.0403ZM13.3183 21.0374V20.0374H12.3183V21.0374H13.3183ZM13.3211 21.429L14.321 21.4182V21.4182L13.3211 21.429ZM13.3183 22.1274L12.3189 22.093L12.3186 22.1025L12.3184 22.112L13.3183 22.1274ZM12.1439 23.4331L12.1608 24.4329L12.1611 24.4329L12.1439 23.4331ZM10.9335 22.1035H9.93347V22.1108L9.93358 22.1182L10.9335 22.1035ZM10.9335 21.0374H11.9335V20.0374H10.9335V21.0374ZM10.4957 21.0402L10.5056 22.0402H10.5056L10.4957 21.0402ZM9.74705 21.0374L9.69542 22.0361L9.70512 22.0366L9.71483 22.0369L9.74705 21.0374ZM8.53666 19.8755L9.53649 19.8567L9.53632 19.8479L9.536 19.8392L8.53666 19.8755ZM9.73507 18.6538L9.70385 17.6542L9.6945 17.6545L9.68515 17.655L9.73507 18.6538ZM21.7191 9.68823H19.3462V11.6882H21.7191V9.68823ZM20.7245 9.58505C20.7218 9.94367 20.7191 10.3115 20.7191 10.6882H22.7191C22.7191 10.3202 22.7218 9.95981 22.7245 9.60008L20.7245 9.58505ZM20.7193 7.53699C20.7348 8.20919 20.7299 8.87867 20.7245 9.58505L22.7245 9.60008C22.7298 8.89881 22.7351 8.1988 22.7188 7.49101L20.7193 7.53699ZM20.5327 7.39823C20.5978 7.40213 20.6479 7.42831 20.678 7.4573C20.704 7.48233 20.7182 7.5108 20.7198 7.55245L22.7183 7.47555C22.6726 6.28631 21.7108 5.46529 20.6524 5.40182L20.5327 7.39823ZM20.3564 7.45414C20.3557 7.46673 20.3514 7.47703 20.3496 7.48015C20.3489 7.48129 20.3547 7.47095 20.3747 7.45554C20.3948 7.44004 20.4233 7.42422 20.4578 7.41312C20.4921 7.4021 20.525 7.39812 20.5526 7.39923L20.6325 5.40082C19.6419 5.36122 18.437 6.05121 18.36 7.3343L20.3564 7.45414ZM20.3397 9.67716C20.3321 8.90293 20.3251 8.16833 20.3573 7.43815L18.3592 7.35028C18.3243 8.14315 18.3323 8.93159 18.3398 9.69674L20.3397 9.67716ZM20.3462 10.6882C20.3462 10.3468 20.3429 10.0084 20.3397 9.67716L18.3398 9.69674C18.343 10.0295 18.3462 10.3582 18.3462 10.6882H20.3462ZM3.53199 26.1513C3.49032 25.0182 3.80571 23.9376 4.18596 22.6708L2.27041 22.0958C1.90546 23.3115 1.47752 24.7072 1.53335 26.2248L3.53199 26.1513ZM3.52987 26.4443C3.53118 26.3658 3.53267 26.2776 3.53267 26.1881H1.53267C1.53267 26.2582 1.5315 26.3297 1.53015 26.4109L3.52987 26.4443ZM3.53142 26.8568C3.52537 26.7359 3.52711 26.6095 3.52987 26.4443L1.53015 26.4109C1.52758 26.5651 1.52399 26.7582 1.53392 26.9567L3.53142 26.8568ZM10.4145 31.5036C7.07427 32.6132 3.75321 30.362 3.53068 26.8436L1.53466 26.9699C1.83943 31.7884 6.45179 34.9274 11.045 33.4017L10.4145 31.5036ZM13.562 28.5841C12.9402 30.031 11.8963 31.0099 10.4137 31.5039L11.0458 33.4014C13.0864 32.7215 14.5593 31.3288 15.3995 29.3738L13.562 28.5841ZM17.477 24.7908C15.5934 25.4611 14.3264 26.8241 13.5635 28.5806L15.398 29.3773C15.9773 28.0434 16.8675 27.1306 18.1476 26.675L17.477 24.7908ZM22.9495 24.5934C21.1713 24.1621 19.3014 24.1376 17.4752 24.7914L18.1494 26.6744C19.5349 26.1783 20.9966 26.1777 22.4781 26.537L22.9495 24.5934ZM27.3061 28.4756C26.4733 26.6096 25.115 25.1308 22.9547 24.5946L22.4729 26.5357C23.8837 26.8859 24.8264 27.8267 25.4797 29.2907L27.3061 28.4756ZM33.3333 31.6342C30.9859 32.1787 28.3582 30.8546 27.3074 28.4787L25.4783 29.2876C26.8962 32.4935 30.4523 34.3556 33.7853 33.5825L33.3333 31.6342ZM37.3623 25.1028C38.1104 27.9242 36.2221 30.9656 33.3338 31.6341L33.7848 33.5826C37.7274 32.67 40.3451 28.5485 39.2955 24.5902L37.3623 25.1028ZM34.8239 16.3112C35.7521 19.2136 36.5862 22.1428 37.3616 25.1001L39.2962 24.5928C38.5138 21.609 37.67 18.6449 36.7288 15.7019L34.8239 16.3112ZM25.5224 13.6177C28.519 10.873 33.5635 12.3666 34.8238 16.3109L36.7289 15.7022C35.0651 10.4951 28.3413 8.32348 24.1715 12.1428L25.5224 13.6177ZM24.2597 14.0959C24.6601 14.0959 25.1658 13.9444 25.5225 13.6176L24.1714 12.1429C24.2018 12.1151 24.224 12.102 24.2304 12.0984C24.2378 12.0942 24.2393 12.0942 24.2351 12.0957C24.2335 12.0962 24.2317 12.0968 24.2299 12.0973C24.2282 12.0978 24.2273 12.0979 24.2275 12.0979C24.2277 12.0979 24.23 12.0974 24.2346 12.097C24.2392 12.0965 24.2476 12.0959 24.2597 12.0959V14.0959ZM16.705 14.0958C19.2248 14.1078 21.7446 14.1078 24.2645 14.0958L24.2549 12.0959C21.7415 12.1078 19.228 12.1078 16.7145 12.0959L16.705 14.0958ZM15.3965 13.6032C15.776 13.9534 16.3014 14.0959 16.7098 14.0959V12.0959C16.7193 12.0959 16.7205 12.0966 16.7146 12.0956C16.7091 12.0946 16.7026 12.093 16.6971 12.0911C16.6914 12.0891 16.6921 12.0887 16.6989 12.0925C16.705 12.096 16.7252 12.108 16.7527 12.1333L15.3965 13.6032ZM5.97448 16.5223C7.15376 12.4175 12.3192 10.818 15.4036 13.6097L16.7457 12.1269C12.4719 8.25866 5.60533 10.5641 4.05224 15.97L5.97448 16.5223ZM5.58468 17.8491C5.71422 17.409 5.84402 16.9681 5.97311 16.527L4.05362 15.9653C3.92505 16.4046 3.79569 16.844 3.66607 17.2844L5.58468 17.8491ZM4.44261 21.7973C4.8089 20.4847 5.19561 19.1709 5.58468 17.8491L3.66607 17.2844C3.27768 18.6038 2.88693 19.9312 2.51621 21.2597L4.44261 21.7973ZM4.18596 22.6708C4.27092 22.3878 4.35886 22.0949 4.44202 21.7994L2.51679 21.2577C2.4391 21.5337 2.3562 21.81 2.27041 22.0958L4.18596 22.6708ZM27.1719 19.0724C27.0117 19.2326 26.8707 19.3692 26.7368 19.4989L28.1283 20.9355C28.2618 20.8062 28.4131 20.6596 28.5858 20.487L27.1719 19.0724ZM26.8714 20.2338C26.9882 20.3317 27.0995 20.425 27.2147 20.5273L28.5431 19.0321C28.403 18.9077 28.2702 18.7965 28.1556 18.7006L26.8714 20.2338ZM26.3211 19.7443C26.503 19.9262 26.701 20.0911 26.8714 20.2338L28.1556 18.7006C27.9707 18.5457 27.8433 18.4381 27.7349 18.3298L26.3211 19.7443ZM26.1893 16.4851C25.7482 16.926 25.5002 17.5088 25.5418 18.1441C25.5822 18.762 25.8875 19.311 26.3211 19.7443L27.7349 18.3298C27.5573 18.1523 27.539 18.0364 27.5375 18.0135C27.5367 18.0012 27.5381 17.9929 27.5423 17.9824C27.547 17.9707 27.5613 17.9415 27.6031 17.8997L26.1893 16.4851ZM29.4487 16.6408C29.0215 16.2138 28.4796 15.9031 27.8668 15.8515C27.2308 15.7981 26.6388 16.0358 26.1893 16.4851L27.6031 17.8997C27.6419 17.8609 27.6669 17.85 27.6739 17.8473C27.6798 17.845 27.6859 17.8434 27.6992 17.8445C27.7275 17.8469 27.8508 17.8715 28.0348 18.0554L29.4487 16.6408ZM30.0972 17.3232C29.8684 17.0766 29.6636 16.8556 29.4487 16.6408L28.0348 18.0554C28.2182 18.2387 28.3967 18.4309 28.6311 18.6835L30.0972 17.3232ZM30.2884 17.529C30.2216 17.4573 30.1584 17.3892 30.0972 17.3232L28.6311 18.6835C28.6921 18.7493 28.7566 18.8188 28.8249 18.8922L30.2884 17.529ZM29.0791 17.2413C28.9907 17.342 28.9043 17.4405 28.8135 17.5414L30.2998 18.8797C30.4007 18.7676 30.4955 18.6595 30.5828 18.56L29.0791 17.2413ZM29.7511 16.5188C29.5038 16.7561 29.2824 17.0095 29.0791 17.2413L30.5828 18.56C30.7968 18.316 30.9615 18.1292 31.1358 17.9619L29.7511 16.5188ZM32.8551 16.4643C32.4317 16.0516 31.8792 15.825 31.293 15.8425C30.7124 15.8598 30.1759 16.113 29.7528 16.5172L31.1341 17.9635C31.2502 17.8526 31.331 17.8422 31.3526 17.8416C31.3685 17.8411 31.4033 17.8421 31.4592 17.8966L32.8551 16.4643ZM32.8437 19.6326C33.2556 19.2022 33.514 18.6528 33.5255 18.0577C33.5371 17.4553 33.2929 16.8914 32.8555 16.4647L31.4588 17.8962C31.5248 17.9605 31.5262 18.0015 31.5259 18.019C31.5254 18.0438 31.5142 18.1292 31.3987 18.2498L32.8437 19.6326ZM32.0915 20.3252C32.3466 20.1044 32.6038 19.8828 32.843 19.6333L31.3994 18.2491C31.2363 18.4192 31.053 18.579 30.7826 18.8129L32.0915 20.3252ZM31.788 20.5896C31.8941 20.496 31.9938 20.4097 32.0915 20.3252L30.7826 18.8129C30.6857 18.8968 30.5792 18.989 30.4651 19.0896L31.788 20.5896ZM32.2131 19.471C32.0769 19.3516 31.9462 19.2369 31.8095 19.1092L30.4436 20.57C30.607 20.7228 30.7607 20.8575 30.8948 20.975L32.2131 19.471ZM32.8305 20.0453C32.6242 19.8305 32.4069 19.6408 32.2131 19.471L30.8948 20.975C31.1002 21.1551 31.2514 21.2884 31.388 21.4307L32.8305 20.0453ZM32.8553 23.2147C33.2877 22.7931 33.5311 22.2318 33.5195 21.6305C33.508 21.0349 33.2492 20.4824 32.8314 20.0462L31.3871 21.4297C31.5086 21.5565 31.5194 21.6448 31.5199 21.6691C31.5202 21.6877 31.518 21.7253 31.459 21.7828L32.8553 23.2147ZM29.7006 23.1222C30.1195 23.5409 30.6575 23.8202 31.2563 23.8467C31.8638 23.8734 32.4256 23.634 32.8555 23.2145L31.4588 21.783C31.4188 21.8221 31.3894 21.8371 31.3755 21.8427C31.3623 21.848 31.3533 21.849 31.3444 21.8486C31.332 21.8481 31.2468 21.8399 31.1144 21.7076L29.7006 23.1222ZM29.1074 22.4338C29.2835 22.6508 29.4733 22.8855 29.6857 23.107L31.1293 21.7228C30.9841 21.5714 30.8465 21.4029 30.6601 21.1732L29.1074 22.4338ZM28.8045 22.0658C28.9111 22.192 29.0086 22.3122 29.1074 22.4338L30.6601 21.1732C30.5626 21.0531 30.4535 20.9187 30.3328 20.7757L28.8045 22.0658ZM29.93 22.5038C30.044 22.3787 30.162 22.2492 30.2967 22.1063L28.8406 20.7352C28.6933 20.8916 28.5651 21.0323 28.4518 21.1567L29.93 22.5038ZM29.3376 23.1251C29.5483 22.9232 29.7389 22.7135 29.93 22.5038L28.4518 21.1567C28.2516 21.3763 28.1072 21.5342 27.9541 21.6808L29.3376 23.1251ZM26.1858 23.2145C26.6183 23.6364 27.1811 23.8731 27.7919 23.8402C28.3872 23.8081 28.918 23.527 29.3376 23.1251L27.9541 21.6808C27.7985 21.8299 27.7001 21.8422 27.6842 21.8431C27.6753 21.8436 27.669 21.8426 27.6599 21.839C27.6497 21.835 27.6225 21.8219 27.5826 21.783L26.1858 23.2145ZM26.2346 19.9976C25.8185 20.4312 25.5394 20.9808 25.5164 21.5879C25.4929 22.2082 25.7421 22.7812 26.1856 23.2143L27.5828 21.7832C27.5426 21.744 27.5275 21.7152 27.5218 21.7016C27.5164 21.6887 27.5145 21.6776 27.515 21.6638C27.5159 21.6391 27.5305 21.5358 27.6776 21.3824L26.2346 19.9976ZM26.7368 19.4989C26.5652 19.6651 26.3982 19.8267 26.2336 19.9987L27.6786 21.3814C27.8124 21.2416 27.9515 21.1067 28.1283 20.9355L26.7368 19.4989ZM10.9335 17.6538C10.7861 17.6538 10.6464 17.6524 10.5065 17.651L10.4867 19.6509C10.6255 19.6523 10.7748 19.6538 10.9335 19.6538V17.6538ZM9.93188 18.315C9.93267 18.424 9.93347 18.5351 9.93347 18.6538H11.9335C11.9335 18.5268 11.9326 18.4089 11.9318 18.3006L9.93188 18.315ZM9.94767 17.4133C9.92712 17.7215 9.92973 18.0174 9.93188 18.3151L11.9318 18.3006C11.9296 17.9889 11.9285 17.7681 11.9432 17.5464L9.94767 17.4133ZM12.1617 15.2583C10.8787 15.2354 9.98591 16.2501 9.94601 17.4466L11.9449 17.5132C11.9493 17.3808 11.9941 17.3174 12.0163 17.2948C12.0346 17.2762 12.0625 17.2568 12.126 17.2579L12.1617 15.2583ZM14.3297 17.4711C14.2904 16.271 13.4098 15.2581 12.1439 15.2581V17.2581C12.2018 17.2581 12.2316 17.2763 12.2537 17.2994C12.2788 17.3255 12.3262 17.3949 12.3308 17.5366L14.3297 17.4711ZM14.333 18.2384C14.3356 17.9877 14.3384 17.7308 14.3297 17.4705L12.3308 17.5372C12.3378 17.7464 12.3358 17.9591 12.3331 18.218L14.333 18.2384ZM14.3303 18.6538C14.3303 18.5101 14.3317 18.3742 14.333 18.2384L12.3331 18.218C12.3318 18.3526 12.3303 18.4984 12.3303 18.6538H14.3303ZM13.7247 17.6511C13.5923 17.6524 13.4629 17.6538 13.3303 17.6538V19.6538C13.4748 19.6538 13.6143 19.6523 13.7453 19.651L13.7247 17.6511ZM14.513 17.6543C14.2429 17.6456 13.9764 17.6485 13.7247 17.6511L13.7453 19.651C14.0045 19.6483 14.2282 19.6461 14.4485 19.6532L14.513 17.6543ZM16.7151 19.8396C16.7151 18.579 15.7074 17.6941 14.514 17.6543L14.4474 19.6532C14.5798 19.6576 14.6465 19.7025 14.673 19.7281C14.6967 19.7509 14.7151 19.7817 14.7151 19.8396H16.7151ZM14.514 22.0369C15.7141 21.9969 16.7151 21.1059 16.7151 19.8396H14.7151C14.7151 19.9083 14.6931 19.9421 14.6705 19.964C14.6449 19.9889 14.5796 20.0336 14.4474 20.038L14.514 22.0369ZM13.754 22.0402C14.0057 22.0428 14.2556 22.0455 14.514 22.0369L14.4474 20.038C14.2398 20.0449 14.0337 20.043 13.7742 20.0403L13.754 22.0402ZM13.3183 22.0374C13.4727 22.0374 13.6148 22.0388 13.754 22.0402L13.7742 20.0403C13.6359 20.039 13.4842 20.0374 13.3183 20.0374V22.0374ZM14.321 21.4182C14.3196 21.2913 14.3183 21.1667 14.3183 21.0374H12.3183C12.3183 21.1792 12.3198 21.3144 12.3211 21.4398L14.321 21.4182ZM14.3177 22.1619C14.3265 21.9071 14.3236 21.6559 14.321 21.4182L12.3211 21.4398C12.3238 21.6858 12.3258 21.8912 12.3189 22.093L14.3177 22.1619ZM12.1611 24.4329C12.7651 24.4225 13.3256 24.1857 13.7299 23.7374C14.1263 23.2978 14.3092 22.7269 14.3182 22.1428L12.3184 22.112C12.3154 22.3066 12.2586 22.3825 12.2446 22.398C12.2365 22.407 12.2287 22.4127 12.2174 22.4176C12.2056 22.4228 12.1778 22.4323 12.1266 22.4332L12.1611 24.4329ZM9.93358 22.1182C9.94244 22.7205 10.1315 23.3074 10.5408 23.7539C10.9592 24.2104 11.5398 24.4434 12.1608 24.4329L12.1269 22.4332C12.0776 22.434 12.0516 22.4255 12.0414 22.4213C12.0318 22.4173 12.0241 22.4123 12.0152 22.4025C11.9991 22.3849 11.9365 22.301 11.9334 22.0888L9.93358 22.1182ZM9.93347 21.0374V22.1035H11.9335V21.0374H9.93347ZM10.5056 22.0402C10.6455 22.0388 10.7856 22.0374 10.9335 22.0374V20.0374C10.7742 20.0374 10.6245 20.0389 10.4858 20.0403L10.5056 22.0402ZM9.71483 22.0369C9.98239 22.0455 10.2466 22.0428 10.5056 22.0402L10.4858 20.0403C10.2189 20.0429 9.99742 20.045 9.77927 20.0379L9.71483 22.0369ZM7.53684 19.8944C7.5599 21.1156 8.53991 21.9763 9.69542 22.0361L9.79868 20.0387C9.67536 20.0324 9.60898 19.9893 9.57994 19.9613C9.55325 19.9356 9.5374 19.9049 9.53649 19.8567L7.53684 19.8944ZM9.68515 17.655C8.47581 17.7154 7.49149 18.6521 7.53733 19.9119L9.536 19.8392C9.53399 19.7837 9.55096 19.7521 9.57393 19.7285C9.59877 19.7029 9.66059 19.6587 9.78498 19.6525L9.68515 17.655ZM10.5065 17.651C10.2456 17.6484 9.97896 17.6456 9.70385 17.6542L9.76629 19.6533C9.99343 19.6462 10.2188 19.6483 10.4867 19.6509L10.5065 17.651Z" fill="#E60000" mask="url(#path-1-inside-1_2_391)"/>
</g>
</g>
<defs>
<filter id="filter0_b_2_391" x="-9.47266" y="-5.60095" width="60" height="50.3903" filterUnits="userSpaceOnUse" color-interpolation-filters="sRGB">
<feFlood flood-opacity="0" result="BackgroundImageFix"/>
<feGaussianBlur in="BackgroundImageFix" stdDeviation="6"/>
<feComposite in2="SourceAlpha" operator="in" result="effect1_backgroundBlur_2_391"/>
<feBlend mode="normal" in="SourceGraphic" in2="effect1_backgroundBlur_2_391" result="shape"/>
</filter>
<clipPath id="clip0_2_391">
<rect width="36" height="26.4" fill="white" transform="translate(2.5332 6.40002)"/>
</clipPath>
</defs>
</svg>
