<svg width="40" height="40" viewBox="0 0 40 40" fill="none" xmlns="http://www.w3.org/2000/svg">
<g clip-path="url(#clip0_2_381)">
<g filter="url(#filter0_b_2_381)">
<mask id="path-1-inside-1_2_381" fill="white">
<path fill-rule="evenodd" clip-rule="evenodd" d="M33.1372 6.19995H20.1312H7.13736C5.81844 6.19995 5.45208 6.56541 5.45208 7.8445V21.61C5.45208 22.8769 5.83065 23.2545 7.0763 23.2545H33.1372C34.3828 23.2545 34.7614 22.8769 34.7614 21.61V7.8445C34.7614 6.57759 34.3828 6.19995 33.1372 6.19995ZM3.376 33H20.0457H36.8497C37.1428 33 37.4603 32.9878 37.7412 32.8903C38.3884 32.671 38.5838 32.135 38.2541 31.5381C37.0942 29.4189 35.922 27.3119 34.7499 25.2049L34.7492 25.2036C34.4683 24.7163 34.0653 24.4727 33.5035 24.4727H6.69772C6.13596 24.4727 5.73296 24.7163 5.46429 25.2036L5.46427 25.2036C4.2919 27.3111 3.11954 29.4185 1.95939 31.5381C1.62966 32.135 1.83726 32.671 2.48451 32.8903C2.75318 32.9878 3.0707 33 3.376 33ZM20.8639 30.5663C20.6074 30.5649 20.351 30.5636 20.0945 30.5636C19.8385 30.5636 19.5825 30.5649 19.3261 30.5663C18.8118 30.569 18.2957 30.5717 17.7742 30.5636C16.9926 30.5514 16.4553 30.0641 16.4431 29.3698C16.4309 28.651 16.9804 28.1394 17.7986 28.1394C19.3374 28.1272 20.8883 28.1272 22.4271 28.1394C23.2086 28.1516 23.746 28.6389 23.7582 29.3332C23.7704 30.0398 23.2208 30.5514 22.4026 30.5636C21.8897 30.5717 21.3768 30.569 20.8639 30.5663Z"/>
</mask>
<path fill-rule="evenodd" clip-rule="evenodd" d="M33.1372 6.19995H20.1312H7.13736C5.81844 6.19995 5.45208 6.56541 5.45208 7.8445V21.61C5.45208 22.8769 5.83065 23.2545 7.0763 23.2545H33.1372C34.3828 23.2545 34.7614 22.8769 34.7614 21.61V7.8445C34.7614 6.57759 34.3828 6.19995 33.1372 6.19995ZM3.376 33H20.0457H36.8497C37.1428 33 37.4603 32.9878 37.7412 32.8903C38.3884 32.671 38.5838 32.135 38.2541 31.5381C37.0942 29.4189 35.922 27.3119 34.7499 25.2049L34.7492 25.2036C34.4683 24.7163 34.0653 24.4727 33.5035 24.4727H6.69772C6.13596 24.4727 5.73296 24.7163 5.46429 25.2036L5.46427 25.2036C4.2919 27.3111 3.11954 29.4185 1.95939 31.5381C1.62966 32.135 1.83726 32.671 2.48451 32.8903C2.75318 32.9878 3.0707 33 3.376 33ZM20.8639 30.5663C20.6074 30.5649 20.351 30.5636 20.0945 30.5636C19.8385 30.5636 19.5825 30.5649 19.3261 30.5663C18.8118 30.569 18.2957 30.5717 17.7742 30.5636C16.9926 30.5514 16.4553 30.0641 16.4431 29.3698C16.4309 28.651 16.9804 28.1394 17.7986 28.1394C19.3374 28.1272 20.8883 28.1272 22.4271 28.1394C23.2086 28.1516 23.746 28.6389 23.7582 29.3332C23.7704 30.0398 23.2208 30.5514 22.4026 30.5636C21.8897 30.5717 21.3768 30.569 20.8639 30.5663Z" fill="#E60000"/>
<path d="M37.7412 32.8903L37.4203 31.9432L37.4134 31.9456L37.7412 32.8903ZM38.2541 31.5381L37.3769 32.0183L37.3787 32.0217L38.2541 31.5381ZM34.7499 25.2049L35.6238 24.7187L35.6229 24.7172L34.7499 25.2049ZM34.7492 25.2036L35.6223 24.7159L35.6155 24.7042L34.7492 25.2036ZM5.46429 25.2036L6.33918 25.6879L6.34 25.6864L5.46429 25.2036ZM5.46427 25.2036L6.33815 25.6898L6.33916 25.6879L5.46427 25.2036ZM1.95939 31.5381L2.83472 32.0217L2.83658 32.0183L1.95939 31.5381ZM2.48451 32.8903L2.8255 31.9503L2.81547 31.9466L2.80537 31.9432L2.48451 32.8903ZM20.8639 30.5663L20.8586 31.5663H20.8586L20.8639 30.5663ZM19.3261 30.5663L19.3208 29.5663H19.3208L19.3261 30.5663ZM17.7742 30.5636L17.7898 29.5637H17.7898L17.7742 30.5636ZM16.4431 29.3698L15.4432 29.3868L15.4432 29.3874L16.4431 29.3698ZM17.7986 28.1394V29.1394L17.8065 29.1394L17.7986 28.1394ZM22.4271 28.1394L22.4426 27.1395L22.435 27.1394L22.4271 28.1394ZM23.7582 29.3332L24.758 29.3159L24.758 29.3156L23.7582 29.3332ZM22.4026 30.5636L22.3877 29.5637L22.3868 29.5637L22.4026 30.5636ZM20.1312 7.19995H33.1372V5.19995H20.1312V7.19995ZM7.13736 7.19995H20.1312V5.19995H7.13736V7.19995ZM6.45208 7.8445C6.45208 7.56218 6.47345 7.39424 6.49854 7.2965C6.52059 7.21057 6.53391 7.22361 6.49994 7.25689C6.4673 7.28887 6.45956 7.27201 6.55721 7.24791C6.66479 7.22136 6.84388 7.19995 7.13736 7.19995V5.19995C6.46256 5.19995 5.66628 5.27376 5.1003 5.82824C4.52731 6.3896 4.45208 7.18438 4.45208 7.8445H6.45208ZM6.45208 21.61V7.8445H4.45208V21.61H6.45208ZM7.0763 22.2545C6.80598 22.2545 6.64427 22.2329 6.55048 22.2084C6.46761 22.1866 6.47738 22.1731 6.50757 22.2036C6.53719 22.2335 6.52194 22.2408 6.49914 22.1522C6.47375 22.0535 6.45208 21.8862 6.45208 21.61H4.45208C4.45208 22.2745 4.53435 23.0535 5.08657 23.611C5.64196 24.1718 6.41986 24.2545 7.0763 24.2545V22.2545ZM33.1372 22.2545H7.0763V24.2545H33.1372V22.2545ZM33.7614 21.61C33.7614 21.8862 33.7397 22.0535 33.7143 22.1522C33.6915 22.2408 33.6763 22.2335 33.7059 22.2036C33.7361 22.1731 33.7459 22.1866 33.663 22.2084C33.5692 22.2329 33.4075 22.2545 33.1372 22.2545V24.2545C33.7936 24.2545 34.5715 24.1718 35.1269 23.611C35.6791 23.0535 35.7614 22.2745 35.7614 21.61H33.7614ZM33.7614 7.8445V21.61H35.7614V7.8445H33.7614ZM33.1372 7.19995C33.4075 7.19995 33.5692 7.22152 33.663 7.2461C33.7459 7.26781 33.7361 7.28131 33.7059 7.25083C33.6763 7.22092 33.6915 7.21368 33.7143 7.30227C33.7397 7.40093 33.7614 7.56829 33.7614 7.8445H35.7614C35.7614 7.17997 35.6791 6.401 35.1269 5.84344C34.5715 5.28268 33.7936 5.19995 33.1372 5.19995V7.19995ZM20.0457 32H3.376V34H20.0457V32ZM36.8497 32H20.0457V34H36.8497V32ZM37.4134 31.9456C37.3061 31.9828 37.1389 32 36.8497 32V34C37.1466 34 37.6145 33.9928 38.069 33.8351L37.4134 31.9456ZM37.3787 32.0217C37.4112 32.0803 37.4133 32.1064 37.4124 32.0996C37.4119 32.0958 37.4109 32.0843 37.4128 32.0666C37.4146 32.0486 37.4192 32.0273 37.4277 32.0046C37.4362 31.9819 37.4472 31.9619 37.4588 31.9455C37.4702 31.9294 37.4802 31.9196 37.4853 31.9152C37.495 31.9068 37.4807 31.9227 37.4203 31.9432L38.062 33.8374C38.5892 33.6588 39.0797 33.295 39.3003 32.7071C39.5189 32.1242 39.393 31.5317 39.1294 31.0546L37.3787 32.0217ZM33.876 25.691C35.0484 27.7985 36.2189 29.9026 37.3769 32.0183L39.1313 31.058C37.9694 28.9353 36.7956 26.8253 35.6238 24.7187L33.876 25.691ZM33.8761 25.6912L33.8768 25.6925L35.6229 24.7172L35.6222 24.7159L33.8761 25.6912ZM33.5035 25.4727C33.6351 25.4727 33.6945 25.4995 33.7228 25.5163C33.7529 25.5341 33.8108 25.5781 33.8828 25.703L35.6155 24.7042C35.4066 24.3418 35.1226 24.0204 34.7405 23.7946C34.3567 23.5676 33.9337 23.4727 33.5035 23.4727V25.4727ZM6.69772 25.4727H33.5035V23.4727H6.69772V25.4727ZM6.34 25.6864C6.4048 25.5689 6.45733 25.5297 6.48277 25.5146C6.50752 25.4998 6.56541 25.4727 6.69772 25.4727V23.4727C6.26828 23.4727 5.84378 23.5673 5.45943 23.7962C5.07575 24.0247 4.79245 24.351 4.58858 24.7207L6.34 25.6864ZM6.33916 25.6879L6.33918 25.6879L4.5894 24.7193L4.58937 24.7193L6.33916 25.6879ZM2.83658 32.0183C3.99481 29.9022 5.16551 27.7977 6.33815 25.6898L4.59039 24.7175C3.4183 26.8244 2.24426 28.9349 1.08219 31.058L2.83658 32.0183ZM2.80537 31.9432C2.74404 31.9224 2.72728 31.9056 2.73436 31.9117C2.73816 31.9149 2.74712 31.9234 2.75781 31.9382C2.76863 31.9532 2.77931 31.9721 2.78785 31.9941C2.79638 32.0161 2.80123 32.0372 2.80337 32.0557C2.80548 32.0739 2.80458 32.0864 2.80395 32.0915C2.80278 32.1011 2.80367 32.0779 2.83471 32.0217L1.08406 31.0546C0.816657 31.5387 0.69735 32.1353 0.923316 32.7176C1.14923 33.2998 1.63967 33.6599 2.16365 33.8374L2.80537 31.9432ZM3.376 32C3.06665 32 2.9109 31.9812 2.8255 31.9503L2.14352 33.8304C2.59546 33.9943 3.07475 34 3.376 34V32ZM20.0945 31.5636C20.3479 31.5636 20.6017 31.5649 20.8586 31.5663L20.8692 29.5663C20.6132 29.565 20.3541 29.5636 20.0945 29.5636V31.5636ZM19.3313 31.5663C19.5882 31.5649 19.8416 31.5636 20.0945 31.5636V29.5636C19.8354 29.5636 19.5768 29.565 19.3208 29.5663L19.3313 31.5663ZM17.7586 31.5635C18.2923 31.5718 18.8187 31.569 19.3313 31.5663L19.3208 29.5663C18.8049 29.569 18.2992 29.5717 17.7898 29.5637L17.7586 31.5635ZM15.4432 29.3874C15.454 30.0022 15.7044 30.5638 16.1513 30.9659C16.591 31.3615 17.1645 31.5542 17.7586 31.5635L17.7898 29.5637C17.6023 29.5608 17.5164 29.5038 17.489 29.4791C17.4687 29.4609 17.4443 29.4317 17.4429 29.3522L15.4432 29.3874ZM17.7986 27.1394C17.1821 27.1394 16.5861 27.3342 16.1346 27.7471C15.6754 28.167 15.4325 28.754 15.4432 29.3868L17.4429 29.3528C17.4421 29.3039 17.4507 29.2756 17.4567 29.2615C17.4625 29.2476 17.4706 29.2355 17.4842 29.2231C17.509 29.2004 17.5969 29.1394 17.7986 29.1394V27.1394ZM22.435 27.1394C20.891 27.1272 19.3347 27.1272 17.7907 27.1394L17.8065 29.1394C19.34 29.1272 20.8857 29.1272 22.4191 29.1394L22.435 27.1394ZM24.758 29.3156C24.7472 28.7008 24.4969 28.1392 24.05 27.7371C23.6103 27.3415 23.0368 27.1488 22.4426 27.1395L22.4115 29.1393C22.5989 29.1422 22.6849 29.1992 22.7123 29.2239C22.7325 29.2421 22.7569 29.2713 22.7583 29.3508L24.758 29.3156ZM22.4175 31.5635C23.03 31.5544 23.6197 31.3555 24.0666 30.9468C24.5219 30.5305 24.769 29.9484 24.758 29.3159L22.7583 29.3505C22.7591 29.3938 22.7514 29.4187 22.746 29.4312C22.7407 29.4438 22.7325 29.4566 22.717 29.4708C22.6877 29.4976 22.5935 29.5606 22.3877 29.5637L22.4175 31.5635ZM20.8586 31.5663C21.3698 31.569 21.8932 31.5718 22.4185 31.5635L22.3868 29.5637C21.8862 29.5716 21.3838 29.569 20.8692 29.5663L20.8586 31.5663Z" fill="#E60000" mask="url(#path-1-inside-1_2_381)"/>
</g>
</g>
<defs>
<filter id="filter0_b_2_381" x="-10.1953" y="-5.80005" width="60.6074" height="50.8" filterUnits="userSpaceOnUse" color-interpolation-filters="sRGB">
<feFlood flood-opacity="0" result="BackgroundImageFix"/>
<feGaussianBlur in="BackgroundImageFix" stdDeviation="6"/>
<feComposite in2="SourceAlpha" operator="in" result="effect1_backgroundBlur_2_381"/>
<feBlend mode="normal" in="SourceGraphic" in2="effect1_backgroundBlur_2_381" result="shape"/>
</filter>
<clipPath id="clip0_2_381">
<rect width="36.6" height="26.8" fill="white" transform="translate(1.80078 6.19995)"/>
</clipPath>
</defs>
</svg>
