<svg width="41" height="40" viewBox="0 0 41 40" fill="none" xmlns="http://www.w3.org/2000/svg">
<g clip-path="url(#clip0_2_369)">
<g filter="url(#filter0_b_2_369)">
<mask id="path-1-inside-1_2_369" fill="white">
<path fill-rule="evenodd" clip-rule="evenodd" d="M3.46634 23.3457V23.8258C15.0406 23.8258 26.5367 23.8258 38.0775 23.8146V23.3345V8.31841C38.0775 7.26895 37.6087 6.80005 36.5372 6.80005H5.0066C3.92395 6.80005 3.46634 7.26895 3.46634 8.32957V23.3457ZM19.7232 18.2975C19.2566 18.5674 18.7868 18.8392 18.3109 19.1144V12.5497C19.5188 13.2534 20.7087 13.9389 21.9121 14.6323C22.599 15.0281 23.2903 15.4264 23.992 15.8321C22.5454 16.6649 21.1495 17.4724 19.7232 18.2975ZM32.6767 29.8189C32.5663 29.5482 32.4534 29.2712 32.3405 28.9837C33.8473 28.9837 35.2648 28.9837 36.6599 28.9726C37.4189 28.9614 37.9993 28.5372 38.0328 27.8561C38.0713 27.2079 38.0619 26.5544 38.0524 25.8955C38.0482 25.6011 38.0439 25.3057 38.0439 25.0092H3.45508V27.3761C3.45508 28.5037 3.92385 28.9726 5.03998 28.9726H9.18082C8.83482 29.8434 8.51114 30.6472 8.18746 31.4511C8.05353 31.8083 7.99772 32.1656 8.44417 32.3331C8.87946 32.5005 9.09153 32.2103 9.23663 31.853C9.3347 31.611 9.43469 31.37 9.53463 31.1291C9.7759 30.5475 10.0169 29.9666 10.23 29.3745C10.3528 29.0507 10.5202 28.9726 10.8439 28.9726C17.4625 28.9837 24.0811 28.9837 30.6998 28.9726C31.0458 28.9726 31.1909 29.0842 31.3025 29.3968C31.5557 30.069 31.8259 30.7242 32.0983 31.3846C32.1381 31.481 32.1779 31.5776 32.2177 31.6744C32.2456 31.7358 32.2707 31.7944 32.2959 31.853C32.321 31.9116 32.3461 31.9702 32.374 32.0316C32.5191 32.3554 32.8204 32.5117 33.0883 32.3219C33.2669 32.1991 33.4231 31.8083 33.3562 31.6074C33.1627 31.0112 32.9262 30.4312 32.6767 29.8189ZM24.9852 27.2086H20.7439C20.2756 27.2086 19.806 27.2074 19.3359 27.2061C18.3947 27.2036 17.4517 27.2011 16.5138 27.2086C16.1343 27.2086 15.766 27.1639 15.7548 26.6839C15.7437 26.1926 16.112 26.0922 16.5249 26.0922H24.9964C25.3982 26.0922 25.7777 26.1815 25.7777 26.6727C25.7777 27.1863 25.3759 27.2086 24.9852 27.2086Z"/>
</mask>
<path fill-rule="evenodd" clip-rule="evenodd" d="M3.46634 23.3457V23.8258C15.0406 23.8258 26.5367 23.8258 38.0775 23.8146V23.3345V8.31841C38.0775 7.26895 37.6087 6.80005 36.5372 6.80005H5.0066C3.92395 6.80005 3.46634 7.26895 3.46634 8.32957V23.3457ZM19.7232 18.2975C19.2566 18.5674 18.7868 18.8392 18.3109 19.1144V12.5497C19.5188 13.2534 20.7087 13.9389 21.9121 14.6323C22.599 15.0281 23.2903 15.4264 23.992 15.8321C22.5454 16.6649 21.1495 17.4724 19.7232 18.2975ZM32.6767 29.8189C32.5663 29.5482 32.4534 29.2712 32.3405 28.9837C33.8473 28.9837 35.2648 28.9837 36.6599 28.9726C37.4189 28.9614 37.9993 28.5372 38.0328 27.8561C38.0713 27.2079 38.0619 26.5544 38.0524 25.8955C38.0482 25.6011 38.0439 25.3057 38.0439 25.0092H3.45508V27.3761C3.45508 28.5037 3.92385 28.9726 5.03998 28.9726H9.18082C8.83482 29.8434 8.51114 30.6472 8.18746 31.4511C8.05353 31.8083 7.99772 32.1656 8.44417 32.3331C8.87946 32.5005 9.09153 32.2103 9.23663 31.853C9.3347 31.611 9.43469 31.37 9.53463 31.1291C9.7759 30.5475 10.0169 29.9666 10.23 29.3745C10.3528 29.0507 10.5202 28.9726 10.8439 28.9726C17.4625 28.9837 24.0811 28.9837 30.6998 28.9726C31.0458 28.9726 31.1909 29.0842 31.3025 29.3968C31.5557 30.069 31.8259 30.7242 32.0983 31.3846C32.1381 31.481 32.1779 31.5776 32.2177 31.6744C32.2456 31.7358 32.2707 31.7944 32.2959 31.853C32.321 31.9116 32.3461 31.9702 32.374 32.0316C32.5191 32.3554 32.8204 32.5117 33.0883 32.3219C33.2669 32.1991 33.4231 31.8083 33.3562 31.6074C33.1627 31.0112 32.9262 30.4312 32.6767 29.8189ZM24.9852 27.2086H20.7439C20.2756 27.2086 19.806 27.2074 19.3359 27.2061C18.3947 27.2036 17.4517 27.2011 16.5138 27.2086C16.1343 27.2086 15.766 27.1639 15.7548 26.6839C15.7437 26.1926 16.112 26.0922 16.5249 26.0922H24.9964C25.3982 26.0922 25.7777 26.1815 25.7777 26.6727C25.7777 27.1863 25.3759 27.2086 24.9852 27.2086Z" fill="#E60000"/>
<path d="M3.46634 23.8258H2.46634V24.8258H3.46634V23.8258ZM38.0775 23.8146L38.0785 24.8146L39.0775 24.8136V23.8146H38.0775ZM18.3109 19.1144H17.3109V20.8477L18.8114 19.9801L18.3109 19.1144ZM19.7232 18.2975L19.2224 17.4319L19.2224 17.4319L19.7232 18.2975ZM18.3109 12.5497L18.8142 11.6856L17.3109 10.8099V12.5497H18.3109ZM21.9121 14.6323L22.4114 13.7658L22.4114 13.7658L21.9121 14.6323ZM23.992 15.8321L24.4909 16.6987L25.9929 15.8339L24.4925 14.9664L23.992 15.8321ZM32.3405 28.9837V27.9837H30.8734L31.4097 29.3493L32.3405 28.9837ZM32.6767 29.8189L33.6027 29.4414L33.6027 29.4414L32.6767 29.8189ZM36.6599 28.9726L36.6679 29.9726L36.6746 29.9725L36.6599 28.9726ZM38.0328 27.8561L37.0345 27.7967L37.034 27.807L38.0328 27.8561ZM38.0524 25.8955L39.0523 25.8811L39.0523 25.8811L38.0524 25.8955ZM38.0439 25.0092H39.0439V24.0092H38.0439V25.0092ZM3.45508 25.0092V24.0092H2.45508V25.0092H3.45508ZM9.18082 28.9726L10.1102 29.3418L10.6542 27.9726H9.18082V28.9726ZM8.18746 31.4511L7.25984 31.0775L7.25534 31.0887L7.2511 31.1L8.18746 31.4511ZM8.44417 32.3331L8.80325 31.3997L8.79539 31.3968L8.44417 32.3331ZM9.23663 31.853L10.1631 32.2293L10.1634 32.2286L9.23663 31.853ZM9.53463 31.1291L10.4583 31.5123L10.4583 31.5123L9.53463 31.1291ZM10.23 29.3745L9.29495 29.0199L9.29194 29.0279L9.28906 29.0359L10.23 29.3745ZM10.8439 28.9726L10.8455 27.9726H10.8439V28.9726ZM30.6998 28.9726L30.6998 27.9726L30.6981 27.9726L30.6998 28.9726ZM31.3025 29.3968L30.3607 29.7331L30.3636 29.7412L30.3667 29.7493L31.3025 29.3968ZM32.0983 31.3846L31.1738 31.7658L31.1738 31.7659L32.0983 31.3846ZM32.2177 31.6744L31.293 32.055L31.2999 32.0717L31.3073 32.0881L32.2177 31.6744ZM32.374 32.0316L33.2865 31.6227L33.2844 31.6179L32.374 32.0316ZM33.0883 32.3219L32.5216 31.4978L32.5102 31.5059L33.0883 32.3219ZM33.3562 31.6074L32.405 31.9161L32.4075 31.9235L33.3562 31.6074ZM19.3359 27.2061L19.3386 26.2061L19.3386 26.2061L19.3359 27.2061ZM16.5138 27.2086V28.2086L16.5217 28.2086L16.5138 27.2086ZM15.7548 26.6839L14.7551 26.7066L14.7551 26.7071L15.7548 26.6839ZM4.46634 23.8258V23.3457H2.46634V23.8258H4.46634ZM38.0765 22.8146C26.5363 22.8258 15.0407 22.8258 3.46634 22.8258V24.8258C15.0405 24.8258 26.5371 24.8258 38.0785 24.8146L38.0765 22.8146ZM37.0775 23.3345V23.8146H39.0775V23.3345H37.0775ZM37.0775 8.31841V23.3345H39.0775V8.31841H37.0775ZM36.5372 7.80005C36.9521 7.80005 37.0235 7.89396 37.0059 7.87663C36.9859 7.85686 37.0775 7.9194 37.0775 8.31841H39.0775C39.0775 7.66796 38.9347 6.97132 38.4124 6.45474C37.8926 5.94059 37.1939 5.80005 36.5372 5.80005V7.80005ZM5.0066 7.80005H36.5372V5.80005H5.0066V7.80005ZM4.46634 8.32957C4.46634 7.91669 4.55894 7.85283 4.53768 7.87409C4.51655 7.89523 4.58323 7.80005 5.0066 7.80005V5.80005C4.34732 5.80005 3.64387 5.93932 3.12327 6.46007C2.60255 6.98094 2.46634 7.68184 2.46634 8.32957H4.46634ZM4.46634 23.3457V8.32957H2.46634V23.3457H4.46634ZM18.8114 19.9801C19.2874 19.7049 19.7574 19.433 20.2239 19.1631L19.2224 17.4319C18.7559 17.7018 18.2861 17.9736 17.8103 18.2487L18.8114 19.9801ZM17.3109 12.5497V19.1144H19.3109V12.5497H17.3109ZM22.4114 13.7658C21.2076 13.0723 20.0198 12.3879 18.8142 11.6856L17.8075 13.4138C19.0179 14.1189 20.2098 14.8056 21.4129 15.4988L22.4114 13.7658ZM24.4925 14.9664C23.7901 14.5602 23.0981 14.1615 22.4114 13.7658L21.4129 15.4988C22.0999 15.8946 22.7905 16.2925 23.4914 16.6978L24.4925 14.9664ZM20.2239 19.1631C21.6504 18.3379 23.0454 17.5309 24.4909 16.6987L23.493 14.9654C22.0454 15.7989 20.6487 16.6069 19.2224 17.4319L20.2239 19.1631ZM31.4097 29.3493C31.5253 29.6437 31.6406 29.9265 31.7506 30.1964L33.6027 29.4414C33.492 29.1699 33.3815 28.8988 33.2713 28.6182L31.4097 29.3493ZM36.6519 27.9726C35.2615 27.9837 33.848 27.9837 32.3405 27.9837V29.9837C33.8465 29.9837 35.268 29.9837 36.6679 29.9725L36.6519 27.9726ZM37.034 27.807C37.0324 27.8381 37.0261 27.8502 37.0247 27.8529C37.023 27.8563 37.0174 27.866 36.9991 27.8804C36.9593 27.9118 36.8494 27.9697 36.6452 27.9727L36.6746 29.9725C37.7682 29.9564 38.9636 29.2862 39.0315 27.9052L37.034 27.807ZM37.0525 25.9099C37.0621 26.5752 37.0705 27.1916 37.0345 27.7967L39.031 27.9155C39.0721 27.2242 39.0617 26.5335 39.0523 25.8811L37.0525 25.9099ZM37.0439 25.0092C37.0439 25.3141 37.0483 25.6167 37.0525 25.9099L39.0523 25.8811C39.0481 25.5855 39.0439 25.2973 39.0439 25.0092H37.0439ZM3.45508 26.0092H38.0439V24.0092H3.45508V26.0092ZM4.45508 27.3761V25.0092H2.45508V27.3761H4.45508ZM5.03998 27.9726C4.82567 27.9726 4.69225 27.9494 4.61453 27.9256C4.57766 27.9143 4.5572 27.904 4.54781 27.8986C4.54306 27.8959 4.54046 27.894 4.53939 27.8932C4.53882 27.8927 4.53848 27.8924 4.53834 27.8923C4.53819 27.8922 4.53813 27.8921 4.5381 27.8921C4.53808 27.8921 4.53799 27.892 4.53782 27.8918C4.53765 27.8916 4.53732 27.8912 4.53681 27.8905C4.53585 27.8892 4.53378 27.8863 4.53084 27.8812C4.52501 27.871 4.51437 27.8494 4.50277 27.8112C4.47837 27.7307 4.45508 27.594 4.45508 27.3761H2.45508C2.45508 28.048 2.58996 28.7693 3.11986 29.3023C3.65114 29.8366 4.37137 29.9726 5.03998 29.9726V27.9726ZM9.18082 27.9726H5.03998V29.9726H9.18082V27.9726ZM9.11509 31.8246C9.43867 31.021 9.76318 30.2151 10.1102 29.3418L8.25149 28.6033C7.90646 29.4717 7.58361 30.2735 7.25984 31.0775L9.11509 31.8246ZM8.79539 31.3968C8.79842 31.3979 8.86867 31.4251 8.94553 31.5119C9.02817 31.6052 9.07075 31.7135 9.08529 31.8032C9.09776 31.8801 9.0867 31.9232 9.08926 31.9102C9.09156 31.8986 9.09992 31.8659 9.12383 31.8021L7.2511 31.1C7.1781 31.2948 7.04069 31.6892 7.11106 32.1233C7.15071 32.3678 7.25468 32.6192 7.44823 32.8378C7.63601 33.0498 7.86671 33.1845 8.09296 33.2694L8.79539 31.3968ZM8.31012 31.4767C8.28649 31.5349 8.27127 31.562 8.26641 31.5697C8.26102 31.5783 8.2819 31.5414 8.34068 31.4963C8.40823 31.4445 8.50587 31.3978 8.62099 31.385C8.72927 31.373 8.79669 31.3972 8.80324 31.3997L8.08511 33.2664C8.57916 33.4564 9.11712 33.4212 9.55776 33.0833C9.90646 32.8159 10.0778 32.4394 10.1631 32.2293L8.31012 31.4767ZM8.61096 30.7459C8.51128 30.9862 8.40972 31.231 8.30985 31.4774L10.1634 32.2286C10.2597 31.991 10.3581 31.7538 10.4583 31.5123L8.61096 30.7459ZM9.28906 29.0359C9.08541 29.6017 8.85376 30.1606 8.61096 30.7459L10.4583 31.5123C10.698 30.9343 10.9484 30.3314 11.1709 29.7131L9.28906 29.0359ZM10.8439 27.9726C10.6267 27.9726 10.2757 27.9927 9.93805 28.2001C9.57897 28.4207 9.39766 28.7491 9.29495 29.0199L11.165 29.7291C11.1851 29.6761 11.1489 29.8035 10.9851 29.9041C10.8428 29.9916 10.7373 29.9726 10.8439 29.9726V27.9726ZM30.6981 27.9726C24.0806 27.9837 17.4631 27.9837 10.8455 27.9726L10.8422 29.9726C17.4619 29.9837 24.0817 29.9837 30.7015 29.9726L30.6981 27.9726ZM32.2443 29.0606C32.1614 28.8284 32.0082 28.4959 31.6715 28.2546C31.3324 28.0116 30.9637 27.9726 30.6998 27.9726V29.9726C30.7819 29.9726 30.6587 29.9893 30.5065 29.8803C30.3568 29.773 30.332 29.6526 30.3607 29.7331L32.2443 29.0606ZM33.0228 31.0033C32.7494 30.3406 32.4852 29.6996 32.2383 29.0443L30.3667 29.7493C30.6262 30.4383 30.9024 31.1077 31.1738 31.7658L33.0228 31.0033ZM33.1424 31.2937C33.1025 31.1966 33.0625 31.0997 33.0227 31.0033L31.1738 31.7659C31.2136 31.8624 31.2533 31.9586 31.293 32.055L33.1424 31.2937ZM33.215 31.4591C33.1905 31.4018 33.1612 31.3335 33.1281 31.2607L31.3073 32.0881C31.33 32.1381 31.351 32.187 31.3767 32.2468L33.215 31.4591ZM33.2844 31.6179C33.2617 31.5679 33.2407 31.519 33.215 31.4591L31.3767 32.2468C31.4012 32.3042 31.4305 32.3725 31.4636 32.4453L33.2844 31.6179ZM32.5102 31.5059C32.5713 31.4627 32.6641 31.4194 32.7823 31.4073C32.8997 31.3953 33.0056 31.4179 33.0876 31.4539C33.241 31.5214 33.2844 31.6179 33.2865 31.6227L31.4614 32.4406C31.6086 32.7691 31.8753 33.1057 32.2826 33.2848C32.7324 33.4826 33.2469 33.4351 33.6664 33.1378L32.5102 31.5059ZM32.4075 31.9235C32.3611 31.7845 32.3727 31.685 32.3748 31.6673C32.3782 31.6391 32.3829 31.63 32.3807 31.6357C32.3788 31.6406 32.3789 31.6378 32.3875 31.6251C32.3911 31.6198 32.43 31.561 32.5217 31.4979L33.6549 33.1459C33.9832 32.9201 34.1621 32.5759 34.2479 32.3522C34.3281 32.1434 34.4491 31.7241 34.3049 31.2912L32.4075 31.9235ZM31.7506 30.1964C32.0027 30.8148 32.2248 31.3608 32.405 31.9161L34.3073 31.2986C34.1006 30.6617 33.8498 30.0476 33.6027 29.4414L31.7506 30.1964ZM20.7439 28.2086H24.9852V26.2086H20.7439V28.2086ZM19.3333 28.2061C19.8031 28.2074 20.274 28.2086 20.7439 28.2086V26.2086C20.2771 26.2086 19.8088 26.2074 19.3386 26.2061L19.3333 28.2061ZM16.5217 28.2086C17.4535 28.2012 18.3911 28.2036 19.3333 28.2061L19.3386 26.2061C18.3982 26.2036 17.45 26.2011 16.5058 26.2086L16.5217 28.2086ZM14.7551 26.7071C14.7608 26.9533 14.8144 27.2223 14.9621 27.4741C15.114 27.7333 15.3271 27.9086 15.5453 28.0189C15.9239 28.2101 16.3367 28.2086 16.5138 28.2086V26.2086C16.433 26.2086 16.3907 26.2058 16.3682 26.2028C16.3442 26.1996 16.3822 26.2009 16.447 26.2337C16.5243 26.2727 16.6196 26.3468 16.6874 26.4627C16.751 26.5711 16.7544 26.6544 16.7545 26.6606L14.7551 26.7071ZM16.5249 25.0922C16.2801 25.0922 15.8496 25.1132 15.4613 25.3493C14.9684 25.6491 14.7427 26.1602 14.7551 26.7066L16.7546 26.6612C16.7546 26.6632 16.7555 26.7343 16.7061 26.8329C16.6531 26.9382 16.5733 27.0139 16.5004 27.0583C16.4374 27.0965 16.397 27.1014 16.4107 27.0989C16.423 27.0966 16.4582 27.0922 16.5249 27.0922V25.0922ZM24.9964 25.0922H16.5249V27.0922H24.9964V25.0922ZM26.7777 26.6727C26.7777 26.4211 26.7286 26.1524 26.5918 25.8993C26.4521 25.6408 26.2515 25.4556 26.0375 25.3321C25.6517 25.1095 25.2294 25.0922 24.9964 25.0922V27.0922C25.0638 27.0922 25.1008 27.0962 25.1163 27.0989C25.1332 27.1019 25.0971 27.0985 25.0379 27.0643C24.9689 27.0246 24.8883 26.9538 24.8323 26.8502C24.7793 26.752 24.7777 26.6787 24.7777 26.6727H26.7777ZM24.9852 28.2086C25.1402 28.2086 25.5675 28.2186 25.9514 28.0392C26.1785 27.933 26.4083 27.7558 26.5704 27.4806C26.7273 27.2143 26.7777 26.9292 26.7777 26.6727H24.7777C24.7777 26.6725 24.7776 26.6505 24.7864 26.6134C24.7955 26.5749 24.8134 26.5228 24.8471 26.4656C24.9217 26.339 25.0266 26.2637 25.1045 26.2273C25.1677 26.1978 25.2009 26.1991 25.1652 26.203C25.1312 26.2067 25.0802 26.2086 24.9852 26.2086V28.2086Z" fill="#E60000" mask="url(#path-1-inside-1_2_369)"/>
</g>
</g>
<defs>
<filter id="filter0_b_2_369" x="-8.54492" y="-5.19995" width="58.623" height="49.604" filterUnits="userSpaceOnUse" color-interpolation-filters="sRGB">
<feFlood flood-opacity="0" result="BackgroundImageFix"/>
<feGaussianBlur in="BackgroundImageFix" stdDeviation="6"/>
<feComposite in2="SourceAlpha" operator="in" result="effect1_backgroundBlur_2_369"/>
<feBlend mode="normal" in="SourceGraphic" in2="effect1_backgroundBlur_2_369" result="shape"/>
</filter>
<clipPath id="clip0_2_369">
<rect width="34.6" height="25.6" fill="white" transform="translate(3.4668 6.80005)"/>
</clipPath>
</defs>
</svg>
