<svg width="30" height="30" viewBox="0 0 30 30" fill="none" xmlns="http://www.w3.org/2000/svg">
<g clip-path="url(#clip0_2_2688)">
<g filter="url(#filter0_b_2_2688)">
<path d="M7.80062 14.7C7.80062 11.2175 7.79219 7.72659 7.80062 4.24408C7.80062 2.8106 8.52579 1.765 9.79906 1.35182C10.1026 1.25063 10.4315 1.20847 10.7519 1.20847C13.6948 1.20004 16.6376 1.20004 19.572 1.20847C21.2838 1.2169 22.5317 2.45644 22.5317 4.15975C22.5402 11.1922 22.5402 18.2163 22.5317 25.2488C22.5317 26.9521 21.2838 28.2 19.5804 28.2C16.6713 28.2085 13.7622 28.2085 10.8531 28.2C9.03173 28.2 7.81749 27.0027 7.80905 25.1644C7.79219 21.6735 7.80062 18.191 7.80062 14.7ZM15.1704 3.65382C14.597 3.65382 14.0236 3.65382 13.4418 3.65382C12.9864 3.66225 12.7335 3.87306 12.725 4.24408C12.7166 4.62353 12.9527 4.88492 13.3912 4.88492C14.5717 4.90179 15.7438 4.90179 16.9243 4.88492C17.3459 4.87649 17.6326 4.5898 17.6157 4.24408C17.5989 3.88992 17.3206 3.65382 16.8906 3.65382C16.3172 3.65382 15.7438 3.65382 15.1704 3.65382ZM15.1704 23.3093C14.4789 23.3093 13.9309 23.8574 13.9393 24.532C13.9477 25.2066 14.5127 25.7547 15.1873 25.7463C15.845 25.7378 16.3762 25.1982 16.3762 24.532C16.3846 23.8321 15.8618 23.3093 15.1704 23.3093Z" fill="#E60000"/>
<path d="M13.4418 3.15373V3.15382H13.4452H13.4486H13.452H13.4554H13.4588H13.4622H13.4656H13.4691H13.4725H13.4759H13.4793H13.4827H13.4861H13.4895H13.4929H13.4963H13.4997H13.5031H13.5065H13.5099H13.5133H13.5167H13.5201H13.5235H13.527H13.5304H13.5338H13.5372H13.5406H13.544H13.5474H13.5508H13.5542H13.5576H13.561H13.5644H13.5678H13.5712H13.5746H13.578H13.5814H13.5848H13.5882H13.5916H13.595H13.5984H13.6018H13.6052H13.6086H13.612H13.6154H13.6188H13.6222H13.6256H13.629H13.6324H13.6358H13.6392H13.6426H13.646H13.6494H13.6528H13.6562H13.6596H13.663H13.6664H13.6698H13.6732H13.6766H13.68H13.6834H13.6868H13.6902H13.6936H13.697H13.7003H13.7037H13.7071H13.7105H13.7139H13.7173H13.7207H13.7241H13.7275H13.7309H13.7343H13.7377H13.7411H13.7445H13.7479H13.7513H13.7547H13.758H13.7614H13.7648H13.7682H13.7716H13.775H13.7784H13.7818H13.7852H13.7886H13.792H13.7954H13.7988H13.8021H13.8055H13.8089H13.8123H13.8157H13.8191H13.8225H13.8259H13.8293H13.8327H13.836H13.8394H13.8428H13.8462H13.8496H13.853H13.8564H13.8598H13.8632H13.8665H13.8699H13.8733H13.8767H13.8801H13.8835H13.8869H13.8903H13.8936H13.897H13.9004H13.9038H13.9072H13.9106H13.914H13.9173H13.9207H13.9241H13.9275H13.9309H13.9343H13.9377H13.941H13.9444H13.9478H13.9512H13.9546H13.958H13.9613H13.9647H13.9681H13.9715H13.9749H13.9783H13.9816H13.985H13.9884H13.9918H13.9952H13.9986H14.0019H14.0053H14.0087H14.0121H14.0155H14.0189H14.0222H14.0256H14.029H14.0324H14.0358H14.0391H14.0425H14.0459H14.0493H14.0527H14.056H14.0594H14.0628H14.0662H14.0696H14.0729H14.0763H14.0797H14.0831H14.0865H14.0898H14.0932H14.0966H14.1H14.1034H14.1067H14.1101H14.1135H14.1169H14.1203H14.1236H14.127H14.1304H14.1338H14.1371H14.1405H14.1439H14.1473H14.1507H14.154H14.1574H14.1608H14.1642H14.1675H14.1709H14.1743H14.1777H14.181H14.1844H14.1878H14.1912H14.1945H14.1979H14.2013H14.2047H14.208H14.2114H14.2148H14.2182H14.2215H14.2249H14.2283H14.2317H14.235H14.2384H14.2418H14.2452H14.2485H14.2519H14.2553H14.2587H14.262H14.2654H14.2688H14.2722H14.2755H14.2789H14.2823H14.2856H14.289H14.2924H14.2958H14.2991H14.3025H14.3059H14.3093H14.3126H14.316H14.3194H14.3227H14.3261H14.3295H14.3329H14.3362H14.3396H14.343H14.3463H14.3497H14.3531H14.3565H14.3598H14.3632H14.3666H14.3699H14.3733H14.3767H14.38H14.3834H14.3868H14.3902H14.3935H14.3969H14.4003H14.4036H14.407H14.4104H14.4137H14.4171H14.4205H14.4238H14.4272H14.4306H14.434H14.4373H14.4407H14.4441H14.4474H14.4508H14.4542H14.4575H14.4609H14.4643H14.4676H14.471H14.4744H14.4777H14.4811H14.4845H14.4878H14.4912H14.4946H14.4979H14.5013H14.5047H14.508H14.5114H14.5148H14.5181H14.5215H14.5249H14.5282H14.5316H14.535H14.5383H14.5417H14.5451H14.5484H14.5518H14.5552H14.5585H14.5619H14.5653H14.5686H14.572H14.5754H14.5787H14.5821H14.5855H14.5888H14.5922H14.5956H14.5989H14.6023H14.6057H14.609H14.6124H14.6158H14.6191H14.6225H14.6259H14.6292H14.6326H14.6359H14.6393H14.6427H14.646H14.6494H14.6528H14.6561H14.6595H14.6629H14.6662H14.6696H14.673H14.6763H14.6797H14.683H14.6864H14.6898H14.6931H14.6965H14.6999H14.7032H14.7066H14.7099H14.7133H14.7167H14.72H14.7234H14.7268H14.7301H14.7335H14.7369H14.7402H14.7436H14.7469H14.7503H14.7537H14.757H14.7604H14.7638H14.7671H14.7705H14.7738H14.7772H14.7806H14.7839H14.7873H14.7907H14.794H14.7974H14.8007H14.8041H14.8075H14.8108H14.8142H14.8175H14.8209H14.8243H14.8276H14.831H14.8344H14.8377H14.8411H14.8444H14.8478H14.8512H14.8545H14.8579H14.8612H14.8646H14.868H14.8713H14.8747H14.8781H14.8814H14.8848H14.8881H14.8915H14.8949H14.8982H14.9016H14.9049H14.9083H14.9117H14.915H14.9184H14.9217H14.9251H14.9285H14.9318H14.9352H14.9386H14.9419H14.9453H14.9486H14.952H14.9554H14.9587H14.9621H14.9654H14.9688H14.9722H14.9755H14.9789H14.9822H14.9856H14.989H14.9923H14.9957H14.999H15.0024H15.0058H15.0091H15.0125H15.0158H15.0192H15.0226H15.0259H15.0293H15.0326H15.036H15.0394H15.0427H15.0461H15.0494H15.0528H15.0562H15.0595H15.0629H15.0662H15.0696H15.073H15.0763H15.0797H15.083H15.0864H15.0898H15.0931H15.0965H15.0998H15.1032H15.1066H15.1099H15.1133H15.1166H15.12H15.1234H15.1267H15.1301H15.1334H15.1368H15.1402H15.1435H15.1469H15.1502H15.1536H15.157H15.1603H15.1637H15.167H15.1704H15.1738H15.1771H15.1805H15.1838H15.1872H15.1906H15.1939H15.1973H15.2006H15.204H15.2073H15.2107H15.2141H15.2174H15.2208H15.2241H15.2275H15.2309H15.2342H15.2376H15.2409H15.2443H15.2477H15.251H15.2544H15.2577H15.2611H15.2645H15.2678H15.2712H15.2745H15.2779H15.2813H15.2846H15.288H15.2913H15.2947H15.2981H15.3014H15.3048H15.3081H15.3115H15.3149H15.3182H15.3216H15.3249H15.3283H15.3317H15.335H15.3384H15.3417H15.3451H15.3485H15.3518H15.3552H15.3585H15.3619H15.3653H15.3686H15.372H15.3753H15.3787H15.3821H15.3854H15.3888H15.3921H15.3955H15.3989H15.4022H15.4056H15.4089H15.4123H15.4157H15.419H15.4224H15.4257H15.4291H15.4324H15.4358H15.4392H15.4425H15.4459H15.4492H15.4526H15.456H15.4593H15.4627H15.466H15.4694H15.4728H15.4761H15.4795H15.4828H15.4862H15.4896H15.4929H15.4963H15.4996H15.503H15.5064H15.5097H15.5131H15.5164H15.5198H15.5232H15.5265H15.5299H15.5332H15.5366H15.54H15.5433H15.5467H15.55H15.5534H15.5568H15.5601H15.5635H15.5668H15.5702H15.5736H15.5769H15.5803H15.5836H15.587H15.5904H15.5937H15.5971H15.6004H15.6038H15.6072H15.6105H15.6139H15.6172H15.6206H15.624H15.6273H15.6307H15.634H15.6374H15.6408H15.6441H15.6475H15.6508H15.6542H15.6576H15.6609H15.6643H15.6676H15.671H15.6743H15.6777H15.6811H15.6844H15.6878H15.6911H15.6945H15.6979H15.7012H15.7046H15.7079H15.7113H15.7147H15.718H15.7214H15.7247H15.7281H15.7315H15.7348H15.7382H15.7415H15.7449H15.7483H15.7516H15.755H15.7583H15.7617H15.7651H15.7684H15.7718H15.7751H15.7785H15.7819H15.7852H15.7886H15.7919H15.7953H15.7987H15.802H15.8054H15.8087H15.8121H15.8155H15.8188H15.8222H15.8255H15.8289H15.8323H15.8356H15.839H15.8423H15.8457H15.8491H15.8524H15.8558H15.8591H15.8625H15.8659H15.8692H15.8726H15.8759H15.8793H15.8827H15.886H15.8894H15.8927H15.8961H15.8995H15.9028H15.9062H15.9095H15.9129H15.9162H15.9196H15.923H15.9263H15.9297H15.933H15.9364H15.9398H15.9431H15.9465H15.9498H15.9532H15.9566H15.9599H15.9633H15.9666H15.97H15.9734H15.9767H15.9801H15.9834H15.9868H15.9902H15.9935H15.9969H16.0002H16.0036H16.007H16.0103H16.0137H16.017H16.0204H16.0238H16.0271H16.0305H16.0338H16.0372H16.0406H16.0439H16.0473H16.0506H16.054H16.0574H16.0607H16.0641H16.0674H16.0708H16.0742H16.0775H16.0809H16.0842H16.0876H16.091H16.0943H16.0977H16.101H16.1044H16.1078H16.1111H16.1145H16.1178H16.1212H16.1246H16.1279H16.1313H16.1346H16.138H16.1413H16.1447H16.1481H16.1514H16.1548H16.1581H16.1615H16.1649H16.1682H16.1716H16.1749H16.1783H16.1817H16.185H16.1884H16.1917H16.1951H16.1985H16.2018H16.2052H16.2085H16.2119H16.2153H16.2186H16.222H16.2253H16.2287H16.2321H16.2354H16.2388H16.2421H16.2455H16.2489H16.2522H16.2556H16.2589H16.2623H16.2657H16.269H16.2724H16.2757H16.2791H16.2825H16.2858H16.2892H16.2925H16.2959H16.2993H16.3026H16.306H16.3093H16.3127H16.3161H16.3194H16.3228H16.3261H16.3295H16.3329H16.3362H16.3396H16.3429H16.3463H16.3497H16.353H16.3564H16.3597H16.3631H16.3665H16.3698H16.3732H16.3765H16.3799H16.3832H16.3866H16.39H16.3933H16.3967H16.4H16.4034H16.4068H16.4101H16.4135H16.4168H16.4202H16.4236H16.4269H16.4303H16.4336H16.437H16.4404H16.4437H16.4471H16.4504H16.4538H16.4572H16.4605H16.4639H16.4672H16.4706H16.474H16.4773H16.4807H16.484H16.4874H16.4908H16.4941H16.4975H16.5008H16.5042H16.5076H16.5109H16.5143H16.5176H16.521H16.5244H16.5277H16.5311H16.5344H16.5378H16.5412H16.5445H16.5479H16.5512H16.5546H16.558H16.5613H16.5647H16.568H16.5714H16.5748H16.5781H16.5815H16.5848H16.5882H16.5916H16.5949H16.5983H16.6016H16.605H16.6084H16.6117H16.6151H16.6184H16.6218H16.6251H16.6285H16.6319H16.6352H16.6386H16.6419H16.6453H16.6487H16.652H16.6554H16.6587H16.6621H16.6655H16.6688H16.6722H16.6755H16.6789H16.6823H16.6856H16.689H16.6923H16.6957H16.6991H16.7024H16.7058H16.7091H16.7125H16.7159H16.7192H16.7226H16.7259H16.7293H16.7327H16.736H16.7394H16.7427H16.7461H16.7495H16.7528H16.7562H16.7595H16.7629H16.7663H16.7696H16.773H16.7763H16.7797H16.7831H16.7864H16.7898H16.7931H16.7965H16.7999H16.8032H16.8066H16.8099H16.8133H16.8167H16.82H16.8234H16.8267H16.8301H16.8335H16.8368H16.8402H16.8435H16.8469H16.8503H16.8536H16.857H16.8603H16.8637H16.867H16.8704H16.8738H16.8771H16.8805H16.8838H16.8872H16.8906C17.1948 3.15382 17.4923 3.23778 17.7259 3.43017C17.9658 3.62771 18.1004 3.90957 18.1152 4.22029M13.4418 3.15373L17.6157 4.24408M13.4418 3.15373L13.4325 3.15391C13.137 3.15938 12.8352 3.23107 12.5974 3.4275C12.346 3.63514 12.2321 3.9275 12.2252 4.23271L12.2252 4.23297C12.2186 4.52983 12.3088 4.83215 12.537 5.06035C12.7638 5.28713 13.0701 5.38413 13.3873 5.38492M13.4418 3.15373L12.725 4.24408C12.7166 4.62353 12.9527 4.88492 13.3912 4.88492M18.1152 4.22029L17.6157 4.24408M18.1152 4.22029C18.1152 4.2201 18.1152 4.21991 18.1151 4.21971L17.6157 4.24408M18.1152 4.22029C18.1482 4.90358 17.5775 5.37196 16.9343 5.38482L16.9314 5.38488C15.7472 5.40179 14.5715 5.40181 13.3873 5.38492M17.6157 4.24408C17.6326 4.5898 17.3459 4.87649 16.9243 4.88492C15.7438 4.90179 14.5717 4.90179 13.3912 4.88492M13.3873 5.38492C13.3886 5.38492 13.3899 5.38492 13.3912 5.38492V4.88492M13.3873 5.38492C13.3862 5.3849 13.3851 5.38489 13.384 5.38487L13.3912 4.88492M8.30062 4.24529V4.24408C8.30062 3.00768 8.90428 2.16785 9.95339 1.82741L9.9534 1.82742L9.95718 1.82616C10.1994 1.74544 10.473 1.70847 10.7519 1.70847L10.7533 1.70847C13.6951 1.70004 16.6368 1.70004 19.57 1.70847C21.0106 1.7158 22.0317 2.73598 22.0317 4.15975V4.16035C22.0402 11.1924 22.0402 18.2161 22.0317 25.2482V25.2488C22.0317 26.6759 21.0076 27.7 19.5804 27.7L19.579 27.7C16.6708 27.7085 13.7627 27.7085 10.8545 27.7H10.8531C10.0542 27.7 9.42885 27.4396 9.00372 27.017C8.57876 26.5945 8.31275 25.9692 8.30905 25.1621L8.30905 25.162C8.29641 22.5456 8.29799 19.9343 8.29957 17.3191C8.3001 16.4466 8.30062 15.5737 8.30062 14.7C8.30062 13.5386 8.29969 12.3767 8.29875 11.2148C8.29687 8.89079 8.295 6.5665 8.30062 4.24529ZM15.1935 26.2462L15.1937 26.2462C16.1271 26.2343 16.8746 25.4704 16.8762 24.5351C16.8864 23.5571 16.1382 22.8093 15.1704 22.8093C14.2086 22.8093 13.4273 23.577 13.4393 24.5383C13.4512 25.4905 14.2444 26.2581 15.1935 26.2462Z" stroke="#E60000"/>
</g>
</g>
<defs>
<filter id="filter0_b_2_2688" x="-4.20312" y="-10.7979" width="38.7402" height="51.0042" filterUnits="userSpaceOnUse" color-interpolation-filters="sRGB">
<feFlood flood-opacity="0" result="BackgroundImageFix"/>
<feGaussianBlur in="BackgroundImageFix" stdDeviation="6"/>
<feComposite in2="SourceAlpha" operator="in" result="effect1_backgroundBlur_2_2688"/>
<feBlend mode="normal" in="SourceGraphic" in2="effect1_backgroundBlur_2_2688" result="shape"/>
</filter>
<clipPath id="clip0_2_2688">
<rect width="14.7311" height="27" fill="white" transform="translate(7.80078 1.19995)"/>
</clipPath>
</defs>
</svg>
